<svg xmlns="http://www.w3.org/2000/svg" viewBox="0 0 100 100">
  <circle cx="50" cy="50" r="49" fill="#f7f3e8"/>
  <circle cx="50" cy="50" r="45" fill="#b8202c"/>

  <!-- ear/horn tufts -->
  <path d="M 32 40 Q 15 35 10 12 Q 22 20 30 32 Q 33 36 32 40 Z" fill="#f7f3e8"/>
  <path d="M 68 40 Q 85 35 90 12 Q 78 20 70 32 Q 67 36 68 40 Z" fill="#f7f3e8"/>

  <!-- cap -->
  <path d="M 30 40 Q 30 18 50 15 Q 70 18 70 40 Z" fill="#f7f3e8"/>
  <rect x="27.5" y="37" width="45" height="5.2" rx="2.6" fill="#f7f3e8"/>
  <circle cx="50" cy="12" r="3.6" fill="#f7f3e8"/>

  <!-- eye -->
  <circle cx="63" cy="53" r="3.8" fill="#f7f3e8"/>

  <!-- grin -->
  <path d="M 28 59 Q 50 81 72 59" fill="none" stroke="#f7f3e8" stroke-width="9" stroke-linecap="round"/>
</svg>
