<svg xmlns="http://www.w3.org/2000/svg" viewBox="0 0 578 578">
<path fill-rule="evenodd" fill="#000000" d="M 295.0,105.1 L 287.0,103.2 L 282.7,97.0 L 284.0,89.9 L 291.0,84.9 L 299.0,86.2 L 304.0,93.0 L 302.2,101.0 L 295.0,105.1 Z M 133.0,178.1 L 129.0,177.3 L 126.6,170.0 L 124.9,144.0 L 129.0,115.1 L 137.0,89.7 L 150.6,132.0 L 161.3,150.0 L 176.1,167.0 L 133.0,178.1 Z M 541.0,503.1 L 532.0,503.2 L 524.0,497.2 L 523.3,502.0 L 521.0,503.4 L 492.0,503.3 L 489.0,497.5 L 484.0,503.2 L 470.6,502.0 L 461.8,491.0 L 487.0,469.9 L 488.3,467.0 L 462.5,428.0 L 445.0,410.7 L 443.5,412.0 L 444.7,416.0 L 462.0,454.0 L 453.0,459.3 L 429.0,463.7 L 428.0,503.2 L 418.0,502.1 L 394.0,488.2 L 392.2,491.0 L 392.8,502.0 L 390.0,503.5 L 207.0,503.4 L 204.5,502.0 L 203.3,486.0 L 200.0,481.4 L 183.0,491.4 L 172.0,503.0 L 158.0,503.3 L 155.0,498.8 L 153.3,488.0 L 155.0,460.4 L 130.0,462.4 L 121.0,461.1 L 118.3,459.0 L 128.2,446.0 L 135.4,431.0 L 138.4,414.0 L 138.1,407.0 L 136.0,404.6 L 122.3,412.0 L 109.3,427.0 L 97.8,447.0 L 87.5,472.0 L 91.2,488.0 L 106.2,503.0 L 42.0,503.4 L 39.9,502.0 L 41.0,496.4 L 28.0,502.4 L 28.0,485.2 L 57.0,472.0 L 71.6,462.0 L 90.8,411.0 L 105.3,381.0 L 104.0,379.6 L 83.0,385.2 L 69.0,384.4 L 60.0,378.8 L 55.0,368.7 L 56.0,362.6 L 82.0,349.5 L 97.6,338.0 L 104.6,330.0 L 108.5,320.0 L 106.0,315.1 L 92.0,316.2 L 75.0,312.3 L 62.0,305.3 L 58.7,301.0 L 80.0,297.4 L 97.0,292.2 L 108.0,285.7 L 115.0,277.0 L 114.0,274.8 L 97.0,267.1 L 81.0,257.1 L 71.0,247.6 L 68.7,242.0 L 105.0,244.1 L 125.0,240.6 L 129.2,236.0 L 110.9,216.0 L 150.0,215.6 L 153.2,213.0 L 151.2,208.0 L 154.0,206.4 L 201.0,204.8 L 407.0,204.6 L 408.4,201.0 L 405.0,177.0 L 422.0,169.1 L 436.1,152.0 L 446.1,128.0 L 455.0,89.1 L 458.3,97.0 L 464.3,129.0 L 466.2,151.0 L 465.0,173.0 L 462.0,188.0 L 456.2,202.0 L 448.0,212.3 L 437.2,220.0 L 436.7,225.0 L 441.0,234.8 L 449.0,241.5 L 459.0,243.6 L 475.0,242.2 L 474.7,246.0 L 469.2,255.0 L 456.6,264.0 L 481.0,284.2 L 503.5,296.0 L 499.0,299.3 L 481.0,304.0 L 501.0,327.4 L 506.0,340.0 L 506.0,347.8 L 466.1,334.0 L 486.0,355.5 L 509.8,370.0 L 495.0,380.2 L 485.0,384.3 L 470.5,387.0 L 469.3,389.0 L 508.9,456.0 L 518.0,458.5 L 544.8,495.0 L 545.4,498.0 L 541.0,503.1 Z M 339.0,200.1 L 257.7,200.0 L 258.8,170.0 L 264.8,141.0 L 272.8,123.0 L 283.0,111.3 L 293.0,109.7 L 307.0,110.8 L 313.0,115.0 L 320.2,124.0 L 327.4,139.0 L 333.2,158.0 L 338.3,185.0 L 339.0,200.1 Z M 249.0,200.2 L 207.0,200.4 L 202.2,189.0 L 186.6,171.0 L 185.8,168.0 L 191.8,154.0 L 198.0,145.3 L 216.0,129.7 L 242.0,117.6 L 272.0,111.9 L 260.4,136.0 L 253.8,155.0 L 249.5,181.0 L 249.0,200.2 Z M 402.0,200.7 L 347.2,200.0 L 342.5,171.0 L 336.4,148.0 L 320.0,112.8 L 331.0,115.0 L 351.5,123.0 L 368.0,132.8 L 381.0,144.3 L 391.1,157.0 L 398.1,171.0 L 402.7,188.0 L 403.5,198.0 L 402.0,200.7 Z M 96.0,203.1 L 42.5,203.0 L 178.0,172.5 L 182.0,173.7 L 192.0,182.1 L 198.3,190.0 L 200.4,196.0 L 200.0,199.2 L 197.0,200.8 L 96.0,203.1 Z M 306.6,477.0 L 334.0,471.9 L 354.0,464.2 L 370.7,454.0 L 387.6,438.0 L 400.4,419.0 L 409.3,398.0 L 414.3,377.0 L 415.7,355.0 L 403.6,369.0 L 380.5,389.0 L 378.1,411.0 L 376.0,414.3 L 358.0,400.6 L 334.6,410.0 L 312.0,414.2 L 273.0,413.4 L 233.0,404.8 L 211.0,413.1 L 207.8,407.0 L 205.0,388.2 L 167.0,358.2 L 166.8,382.0 L 173.0,410.0 L 183.0,429.7 L 198.4,447.0 L 219.0,460.8 L 243.0,470.2 L 274.0,476.0 L 306.6,477.0 Z"/>
</svg>
